<svg width="96" height="96" viewBox="0 0 96 96" fill="currentColor" xmlns="http://www.w3.org/2000/svg">
<path d="M16 84C13.8 84 11.9167 83.2167 10.35 81.65C8.78333 80.0833 8 78.2 8 76V20C8 17.8 8.78333 15.9167 10.35 14.35C11.9167 12.7833 13.8 12 16 12H80C82.2 12 84.0833 12.7833 85.65 14.35C87.2167 15.9167 88 17.8 88 20V76C88 78.2 87.2167 80.0833 85.65 81.65C84.0833 83.2167 82.2 84 80 84H16ZM18 76H22C22.5333 76 23 75.8 23.4 75.4C23.8 75 24 74.5333 24 74V70C24 69.4667 23.8 69 23.4 68.6C23 68.2 22.5333 68 22 68H18C17.4667 68 17 68.2 16.6 68.6C16.2 69 16 69.4667 16 70V74C16 74.5333 16.2 75 16.6 75.4C17 75.8 17.4667 76 18 76ZM74 76H78C78.5333 76 79 75.8 79.4 75.4C79.8 75 80 74.5333 80 74V70C80 69.4667 79.8 69 79.4 68.6C79 68.2 78.5333 68 78 68H74C73.4667 68 73 68.2 72.6 68.6C72.2 69 72 69.4667 72 70V74C72 74.5333 72.2 75 72.6 75.4C73 75.8 73.4667 76 74 76ZM48 68C49.1333 68 50.0833 67.6167 50.85 66.85C51.6167 66.0833 52 65.1333 52 64V48C52 46.8667 51.6167 45.9167 50.85 45.15C50.0833 44.3833 49.1333 44 48 44C46.8667 44 45.9167 44.3833 45.15 45.15C44.3833 45.9167 44 46.8667 44 48V64C44 65.1333 44.3833 66.0833 45.15 66.85C45.9167 67.6167 46.8667 68 48 68ZM18 60H22C22.5333 60 23 59.8 23.4 59.4C23.8 59 24 58.5333 24 58V54C24 53.4667 23.8 53 23.4 52.6C23 52.2 22.5333 52 22 52H18C17.4667 52 17 52.2 16.6 52.6C16.2 53 16 53.4667 16 54V58C16 58.5333 16.2 59 16.6 59.4C17 59.8 17.4667 60 18 60ZM74 60H78C78.5333 60 79 59.8 79.4 59.4C79.8 59 80 58.5333 80 58V54C80 53.4667 79.8 53 79.4 52.6C79 52.2 78.5333 52 78 52H74C73.4667 52 73 52.2 72.6 52.6C72.2 53 72 53.4667 72 54V58C72 58.5333 72.2 59 72.6 59.4C73 59.8 73.4667 60 74 60ZM18 44H22C22.5333 44 23 43.8 23.4 43.4C23.8 43 24 42.5333 24 42V38C24 37.4667 23.8 37 23.4 36.6C23 36.2 22.5333 36 22 36H18C17.4667 36 17 36.2 16.6 36.6C16.2 37 16 37.4667 16 38V42C16 42.5333 16.2 43 16.6 43.4C17 43.8 17.4667 44 18 44ZM74 44H78C78.5333 44 79 43.8 79.4 43.4C79.8 43 80 42.5333 80 42V38C80 37.4667 79.8 37 79.4 36.6C79 36.2 78.5333 36 78 36H74C73.4667 36 73 36.2 72.6 36.6C72.2 37 72 37.4667 72 38V42C72 42.5333 72.2 43 72.6 43.4C73 43.8 73.4667 44 74 44ZM48 36C49.1333 36 50.0833 35.6167 50.85 34.85C51.6167 34.0833 52 33.1333 52 32C52 30.8667 51.6167 29.9167 50.85 29.15C50.0833 28.3833 49.1333 28 48 28C46.8667 28 45.9167 28.3833 45.15 29.15C44.3833 29.9167 44 30.8667 44 32C44 33.1333 44.3833 34.0833 45.15 34.85C45.9167 35.6167 46.8667 36 48 36ZM18 28H22C22.5333 28 23 27.8 23.4 27.4C23.8 27 24 26.5333 24 26V22C24 21.4667 23.8 21 23.4 20.6C23 20.2 22.5333 20 22 20H18C17.4667 20 17 20.2 16.6 20.6C16.2 21 16 21.4667 16 22V26C16 26.5333 16.2 27 16.6 27.4C17 27.8 17.4667 28 18 28ZM74 28H78C78.5333 28 79 27.8 79.4 27.4C79.8 27 80 26.5333 80 26V22C80 21.4667 79.8 21 79.4 20.6C79 20.2 78.5333 20 78 20H74C73.4667 20 73 20.2 72.6 20.6C72.2 21 72 21.4667 72 22V26C72 26.5333 72.2 27 72.6 27.4C73 27.8 73.4667 28 74 28Z" fill="#f4eccc"/>
</svg>
